<svg width="31" height="16" viewBox="0 0 31 16" fill="none" xmlns="http://www.w3.org/2000/svg">
<path d="M20.0276 4.33741C20.5368 4.84845 20.8228 5.54048 20.8228 6.26193C20.8228 6.98337 20.5368 7.67541 20.0276 8.18645L19.0622 9.14555C18.3555 9.85226 17.3585 10.0731 16.4499 9.83333L18.1031 8.18645L18.5826 7.70058L19.0622 7.22103C19.5922 6.691 19.5922 5.83285 19.0622 5.30282C18.9371 5.17538 18.7878 5.07414 18.6232 5.00504C18.4585 4.93593 18.2817 4.90034 18.1031 4.90034C17.9245 4.90034 17.7477 4.93593 17.583 5.00504C17.4184 5.07414 17.2691 5.17538 17.144 5.30282L16.6581 5.78237L14.5254 7.91512C14.2919 7.0065 14.5128 6.00953 15.2195 5.30282L16.1786 4.33741C16.6896 3.82817 17.3816 3.54224 18.1031 3.54224C18.8245 3.54224 19.5166 3.82817 20.0276 4.33741ZM14.2541 11.0701L17.6235 7.70058C17.8886 7.43557 17.8886 7.0065 17.6235 6.74148C17.3459 6.47015 16.9105 6.49539 16.6581 6.74148L13.2949 10.111C13.0299 10.376 13.0299 10.8051 13.2949 11.0701C13.5726 11.3414 14.008 11.3162 14.2541 11.0701ZM13.7745 12.515L16.3868 9.89643C16.6266 10.8051 16.4057 11.802 15.699 12.5087L14.7399 13.4741C14.2289 13.9834 13.5368 14.2693 12.8154 14.2693C12.0939 14.2693 11.4019 13.9834 10.8909 13.4741C10.3816 12.9631 10.0957 12.2711 10.0957 11.5496C10.0957 10.8282 10.3816 10.1361 10.8909 9.62511L11.8563 8.666C12.563 7.95929 13.56 7.73844 14.4686 7.97191L11.8563 10.5905C11.3199 11.1206 11.3199 11.9787 11.8563 12.515C12.3863 13.0451 13.2445 13.0451 13.7745 12.515Z" fill="white"/>
<g clip-path="url(#clip0_757_439)">
<path d="M1.9598 4.6015C2.3761 4.01228 3.00896 3.61208 3.71975 3.48855C4.43054 3.36502 5.16132 3.52824 5.752 3.94245L6.86225 4.72939C7.67952 5.30466 8.06781 6.24908 7.98716 7.18535L6.08153 5.83855L5.52073 5.44927L4.96615 5.05891C4.35319 4.62746 3.50771 4.7744 3.07626 5.38735C2.97212 5.53244 2.89794 5.69682 2.85805 5.8709C2.81816 6.04498 2.81337 6.22526 2.84395 6.40121C2.87453 6.57716 2.93987 6.74525 3.03615 6.89567C3.13243 7.04608 3.25772 7.1758 3.40471 7.27724L3.96037 7.67381L6.4268 9.40989C5.57156 9.79549 4.55151 9.7486 3.73423 9.17334L2.61885 8.3937C2.02963 7.9774 1.62943 7.34454 1.5059 6.63375C1.38237 5.92296 1.54559 5.19218 1.9598 4.6015ZM9.58161 9.13701L5.68495 6.39421C5.37847 6.17849 4.95573 6.25195 4.74001 6.55843C4.52023 6.87843 4.61964 7.30306 4.90531 7.50959L8.80089 10.2462C9.10737 10.4619 9.53011 10.3884 9.74584 10.0819C9.96562 9.76195 9.8662 9.33732 9.58161 9.13701ZM11.0874 9.36206L8.06013 7.23671C8.91428 6.8449 9.93434 6.89178 10.7516 7.46704L11.867 8.24668C12.4562 8.66298 12.8564 9.29584 12.9799 10.0066C13.1035 10.7174 12.9403 11.4482 12.526 12.0389C12.1097 12.6281 11.4769 13.0283 10.7661 13.1518C10.0553 13.2754 9.32453 13.1121 8.73384 12.6979L7.6236 11.911C6.80632 11.3357 6.41803 10.3913 6.49247 9.45612L9.5197 11.5815C10.1337 12.0191 10.9792 11.8722 11.4158 11.2519C11.8472 10.639 11.7003 9.79351 11.0874 9.36206Z" fill="white"/>
</g>
<g clip-path="url(#clip1_757_439)">
<path d="M18.3656 3.33947C18.7819 2.75026 19.4147 2.35005 20.1255 2.22652C20.8363 2.103 21.5671 2.26621 22.1578 2.68043L23.268 3.46736C24.0853 4.04263 24.4736 4.98706 24.3929 5.92332L22.4873 4.57653L21.9265 4.18725L21.3719 3.79689C20.7589 3.36544 19.9135 3.51237 19.482 4.12533C19.3779 4.27041 19.3037 4.4348 19.2638 4.60887C19.2239 4.78295 19.2191 4.96323 19.2497 5.13919C19.2803 5.31514 19.3456 5.48323 19.4419 5.63364C19.5382 5.78406 19.6635 5.91377 19.8105 6.01521L20.3661 6.41179L22.8326 8.14787C21.9773 8.53346 20.9573 8.48658 20.14 7.91131L19.0246 7.13167C18.4354 6.71537 18.0352 6.08252 17.9117 5.37173C17.7881 4.66093 17.9514 3.93016 18.3656 3.33947ZM25.9874 7.87498L22.0907 5.13219C21.7842 4.91646 21.3615 4.98993 21.1458 5.29641C20.926 5.6164 21.0254 6.04104 21.3111 6.24757L25.2067 8.98415C25.5131 9.19987 25.9359 9.1264 26.1516 8.81992C26.3714 8.49993 26.272 8.0753 25.9874 7.87498ZM27.4931 8.10004L24.4659 5.97469C25.32 5.58287 26.3401 5.62975 27.1574 6.20502L28.2728 6.98466C28.862 7.40096 29.2622 8.03382 29.3857 8.74461C29.5092 9.4554 29.346 10.1862 28.9318 10.7769C28.5155 11.3661 27.8826 11.7663 27.1719 11.8898C26.4611 12.0133 25.7303 11.8501 25.1396 11.4359L24.0294 10.649C23.2121 10.0737 22.8238 9.12927 22.8982 8.19409L25.9255 10.3194C26.5395 10.7571 27.385 10.6102 27.8216 9.98992C28.253 9.37697 28.1061 8.53149 27.4931 8.10004Z" fill="white"/>
</g>
<defs>
<clipPath id="clip0_757_439">
<rect width="12.6198" height="12.6198" fill="white" transform="translate(2.16064 15.9282) rotate(-99.859)"/>
</clipPath>
<clipPath id="clip1_757_439">
<rect width="12.6198" height="12.6198" fill="white" transform="translate(18.5664 14.6661) rotate(-99.859)"/>
</clipPath>
</defs>
</svg>
