<svg width="15" height="15" viewBox="0 0 15 15" fill="none" xmlns="http://www.w3.org/2000/svg">
<path d="M13.1283 6.80001V2.8C13.1283 2.35817 12.7405 2 12.262 2H1.86631C1.38786 2 1 2.35817 1 2.8V11.6C1 12.0419 1.38786 12.4 1.86631 12.4H5.33155" stroke="#0071BC" stroke-linecap="round" stroke-linejoin="round"/>
<path d="M1 4.40002H13.1283" stroke="#0071BC" stroke-linecap="round" stroke-linejoin="round"/>
<path fill-rule="evenodd" clip-rule="evenodd" d="M10.9381 7.8299L11.8264 10H13.559C13.738 9.99391 13.9019 10.0921 13.969 10.2454C14.036 10.3988 13.9917 10.5746 13.8582 10.6848L12.3566 11.6528L13.1888 13.4198C13.2639 13.5856 13.216 13.7773 13.0698 13.8959C12.9235 14.0145 12.7115 14.0337 12.5431 13.9435L10.5327 12.8982L8.52288 13.9435C8.35447 14.0337 8.14251 14.0145 7.99625 13.8959C7.84998 13.7773 7.80206 13.5856 7.87719 13.4198L8.70423 11.6528L7.20262 10.6848C7.06882 10.5751 7.02396 10.3996 7.09048 10.2461C7.157 10.0927 7.3206 9.99423 7.49948 10H9.2321L10.1221 7.8299C10.2023 7.69052 10.3592 7.60339 10.5301 7.60339C10.701 7.60339 10.858 7.69052 10.9381 7.8299Z" stroke="#0071BC" stroke-linecap="round" stroke-linejoin="round"/>
<path d="M3.46924 10.2796L7.06417 6.68469" stroke="#0071BC" stroke-linecap="round" stroke-linejoin="round"/>
</svg>
